<svg xmlns="http://www.w3.org/2000/svg" width="40.598" height="25.456" viewBox="0 0 40.598 25.456"><defs><style>.a{fill:#2d3190;}</style></defs><g transform="translate(-25.23 -34.36)"><path class="a" d="M62.582,35.179a1.237,1.237,0,0,0-1.164-.819H26.459a1.229,1.229,0,1,0,0,2.458H52.15V45.2a1.229,1.229,0,0,0,1.229,1.229h9.99v8.424h-2.7a3.712,3.712,0,0,0-7.031,0H42.734a3.712,3.712,0,0,0-7.031,0H32.95a1.229,1.229,0,1,0,0,2.458h2.745a3.721,3.721,0,0,0,7.031,0H53.642a3.721,3.721,0,0,0,7.031,0H64.6a1.229,1.229,0,0,0,1.229-1.229V44.808a1.328,1.328,0,0,0-.066-.4ZM39.219,57.363a1.278,1.278,0,1,1,.909-.371A1.287,1.287,0,0,1,39.219,57.363Zm17.939,0a1.278,1.278,0,1,1,.909-.371A1.287,1.287,0,0,1,57.157,57.363ZM54.609,36.81h5.933L63,43.972H54.609Z" transform="translate(0)"/><path class="a" d="M39.633,44.169A1.229,1.229,0,0,0,38.4,42.94H29.389a1.229,1.229,0,1,0,0,2.458H38.4a1.229,1.229,0,0,0,1.229-1.229Z" transform="translate(-0.529 -1.549)"/><path class="a" d="M40.131,52.109A1.229,1.229,0,0,0,38.9,50.88H32.149a1.229,1.229,0,1,0,0,2.458H38.9A1.229,1.229,0,0,0,40.131,52.109Z" transform="translate(-1.027 -2.982)"/></g></svg>