<svg xmlns="http://www.w3.org/2000/svg" width="201.684" height="161.691" viewBox="0 0 201.684 161.691"><defs><style>.a{fill:#2d3190;}</style></defs><g transform="translate(-739.832 -222.779)"><path class="a" d="M922.7,370.418h-2.036a77.107,77.107,0,0,1-142.636,0H774a80.845,80.845,0,0,0,150.682,0Z" transform="translate(-8.673 -37.473)"/><path class="a" d="M849.344,222.779A80.978,80.978,0,0,0,774,274.3h4.023a77.108,77.108,0,0,1,142.636,0h4.023A80.978,80.978,0,0,0,849.344,222.779Z" transform="translate(-8.673 0)"/><path class="a" d="M860,260.25a52.827,52.827,0,0,0-44.012,23.564h88.023A52.827,52.827,0,0,0,860,260.25Z" transform="translate(-19.33 -9.511)"/><path class="a" d="M860,393.982a52.827,52.827,0,0,0,44.011-23.564H815.989A52.827,52.827,0,0,0,860,393.982Z" transform="translate(-19.33 -37.473)"/><g transform="translate(782.265 233.451)"><path class="a" d="M799.045,272.435l8.183,3.03.021-.026-4.734-7.274,2.345-2.885,9.322,7.577-1.56,1.919-6.606-5.37-.022.026,4.749,7.654-1.284,1.58-8.4-3.032-.021.026,6.541,5.317-1.56,1.919-9.322-7.577Z" transform="translate(-796.699 -244.239)"/><path class="a" d="M815.124,262.124a6,6,0,0,1-.295-2.3,5.3,5.3,0,0,1,.664-2.2,6.584,6.584,0,0,1,3.955-3.012,5.321,5.321,0,0,1,2.289-.05,6,6,0,0,1,2.142.9,7.511,7.511,0,0,1,1.835,1.744,7.257,7.257,0,0,1,1.162,2.192,5.838,5.838,0,0,1,.274,2.276,5.336,5.336,0,0,1-.673,2.172,6.686,6.686,0,0,1-3.955,3.012,5.317,5.317,0,0,1-2.28.075,5.846,5.846,0,0,1-2.121-.87,7.235,7.235,0,0,1-1.8-1.7A7.5,7.5,0,0,1,815.124,262.124Zm4.326,1.7a3.971,3.971,0,0,0,1.228.683,2.888,2.888,0,0,0,1.359.118,3.5,3.5,0,0,0,2.409-1.835,2.881,2.881,0,0,0,.248-1.341,3.963,3.963,0,0,0-.331-1.366,6.119,6.119,0,0,0-.751-1.278,6.6,6.6,0,0,0-1.069-1.111,4.048,4.048,0,0,0-1.248-.71,2.869,2.869,0,0,0-1.364-.125,3.5,3.5,0,0,0-2.409,1.834,2.871,2.871,0,0,0-.242,1.348,4.04,4.04,0,0,0,.351,1.392,6.566,6.566,0,0,0,.787,1.325A6.142,6.142,0,0,0,819.449,263.821Z" transform="translate(-801.297 -241.492)"/><path class="a" d="M831.711,246.341l7.942,5.2.031-.014-3.4-7.309,2.243-1.042,5.061,10.894-2.4,1.113-7.92-5.188-.031.014,3.388,7.293-2.243,1.042-5.061-10.894Z" transform="translate(-804.982 -238.627)"/><path class="a" d="M856.136,238.468l.519,2.159-6.167,1.482.6,2.5,5.661-1.36.479,2-5.66,1.36.688,2.863,6.3-1.514.519,2.159-8.867,2.131L847.4,240.567Z" transform="translate(-809.568 -237.433)"/><path class="a" d="M862.655,237.641l2.958-.144,3.037,4.6,2.559-4.876,2.941-.143-4.094,7.611.224,4.6-2.638.128-.229-4.672Z" transform="translate(-813.44 -237.081)"/><path class="a" d="M894.574,239.6a7.483,7.483,0,0,1,1.49.5,3.374,3.374,0,0,1,1.068.757,2.309,2.309,0,0,1,.555,1.07,3.233,3.233,0,0,1-.048,1.439,2.63,2.63,0,0,1-.744,1.383,2.989,2.989,0,0,1-1.412.691,2.889,2.889,0,0,1,1.362,1.464,3.668,3.668,0,0,1-.6,3.453,3.048,3.048,0,0,1-1.171.842,4.2,4.2,0,0,1-1.469.3,6.143,6.143,0,0,1-1.577-.158l-5.672-1.314,2.712-11.7Zm-2.428,9.662a3.511,3.511,0,0,0,.738.093,1.83,1.83,0,0,0,.664-.105,1.268,1.268,0,0,0,.526-.371,1.646,1.646,0,0,0,.331-.718,1.555,1.555,0,0,0-.21-1.4,2.227,2.227,0,0,0-1.254-.7l-2.8-.649-.745,3.212Zm1-5a1.893,1.893,0,0,0,1.207-.066,1.271,1.271,0,0,0,.689-.963,1.4,1.4,0,0,0,.008-.707,1.114,1.114,0,0,0-.3-.5,1.711,1.711,0,0,0-.517-.336,3.88,3.88,0,0,0-.651-.211l-2.41-.558-.634,2.737Z" transform="translate(-819.456 -237.396)"/><path class="a" d="M911.494,246.1l-.88,12.795-2.5-1.134.279-2.812-4.089-1.858-1.965,2.045-2.42-1.1,9.106-9.056Zm-2.912,6.772.445-4.64-.031-.013-3.249,3.366Z" transform="translate(-822.899 -239.085)"/><path class="a" d="M927.153,258.991a2.666,2.666,0,0,0-.084-.883,2.754,2.754,0,0,0-1.045-1.51,3.09,3.09,0,0,0-1.427-.613,2.859,2.859,0,0,0-1.36.154,4.028,4.028,0,0,0-1.233.736,6.557,6.557,0,0,0-1.045,1.133,6.108,6.108,0,0,0-.723,1.294,3.98,3.98,0,0,0-.3,1.372,2.9,2.9,0,0,0,.276,1.336,3.089,3.089,0,0,0,1.022,1.17,2.44,2.44,0,0,0,1.965.516,3.423,3.423,0,0,0,1.823-1.087l2.067,1.506a6.1,6.1,0,0,1-1.62,1.338,4.862,4.862,0,0,1-1.809.6,4.732,4.732,0,0,1-1.88-.163,5.907,5.907,0,0,1-1.844-.926,6.177,6.177,0,0,1-1.724-1.848,5.33,5.33,0,0,1-.725-2.162,5.843,5.843,0,0,1,.225-2.281,7.265,7.265,0,0,1,1.115-2.217,7.518,7.518,0,0,1,1.8-1.782,6,6,0,0,1,2.122-.942,5.3,5.3,0,0,1,2.3.006,6.443,6.443,0,0,1,3.641,2.4,5.092,5.092,0,0,1,.789,1.6,4.5,4.5,0,0,1,.133,1.773,4.85,4.85,0,0,1-.626,1.833l-2.068-1.506A2.16,2.16,0,0,0,927.153,258.991Z" transform="translate(-827.349 -241.275)"/><path class="a" d="M938.924,265.374l-3.7,3.337,6.842.147,2.21,2.447-6.667-.3-1.945,8.692-2.22-2.459,1.585-6.3-2.152-.1-2.872,2.593-1.77-1.961,8.917-8.05Z" transform="translate(-830.086 -243.765)"/></g><g transform="translate(788.643 342.038)"><path class="a" d="M808.462,394.346a4.428,4.428,0,0,1-1.468-.99,6.144,6.144,0,0,1-1.387-2.113,5.306,5.306,0,0,1-.349-2.253,5.852,5.852,0,0,1,.607-2.21,7.269,7.269,0,0,1,1.473-2,7.52,7.52,0,0,1,2.073-1.453,6.006,6.006,0,0,1,2.25-.569,5.3,5.3,0,0,1,2.261.394,6.054,6.054,0,0,1,2.08,1.439,5.83,5.83,0,0,1,1.05,1.477,5.078,5.078,0,0,1,.507,1.691,4.409,4.409,0,0,1-1.065,3.417l-1.759-1.809a2.521,2.521,0,0,0,.451-1.707,2.635,2.635,0,0,0-.776-1.522,3.08,3.08,0,0,0-1.3-.845,2.855,2.855,0,0,0-1.367-.078,4.043,4.043,0,0,0-1.34.517,6.546,6.546,0,0,0-1.22.941,6.08,6.08,0,0,0-.932,1.153,3.975,3.975,0,0,0-.53,1.3,2.892,2.892,0,0,0,.046,1.363,3.084,3.084,0,0,0,.809,1.326,2.578,2.578,0,0,0,3.852.243l-1.854-1.906,1.41-1.372,3.52,3.618-4.655,4.528-1.173-1.206.789-1.143A3.954,3.954,0,0,1,808.462,394.346Z" transform="translate(-805.247 -382.642)"/><path class="a" d="M825.638,406.2a6.615,6.615,0,0,1-6.281-4.182,4.6,4.6,0,0,1,.905-3.765l4.147-6.213,2.2,1.466-4.147,6.213a5.373,5.373,0,0,0-.462.845,1.865,1.865,0,0,0,.127,1.794,3.043,3.043,0,0,0,.945.9,2.477,2.477,0,0,0,1.974.559,3.008,3.008,0,0,0,1.545-1.345l4.147-6.214,2.2,1.467-4.147,6.213A4.552,4.552,0,0,1,825.638,406.2Z" transform="translate(-808.799 -384.998)"/><path class="a" d="M843.6,403.53l-.365,12.821-2.541-1.034.166-2.82L836.7,410.8l-1.881,2.123-2.462-1,8.734-9.416Zm-2.636,6.883.258-4.654-.031-.013-3.11,3.494Z" transform="translate(-812.127 -387.656)"/><path class="a" d="M859.66,407.515a3.865,3.865,0,0,1,1.383.525,3.361,3.361,0,0,1,.96.908,3.12,3.12,0,0,1,.5,1.163,3.4,3.4,0,0,1,0,1.31,3.62,3.62,0,0,1-.777,1.72,2.8,2.8,0,0,1-1.647.889l-.007.033a2.049,2.049,0,0,1,.718.554,2.285,2.285,0,0,1,.392.742,3.085,3.085,0,0,1,.136.873,7.277,7.277,0,0,1-.044.916c-.025.19-.055.413-.091.668s-.067.519-.088.788a5.221,5.221,0,0,0-.009.777,1.768,1.768,0,0,0,.16.655l-2.6-.487a4.651,4.651,0,0,1-.013-1.389c.064-.525.108-1.03.131-1.517a2.391,2.391,0,0,0-.307-1.461,1.972,1.972,0,0,0-1.325-.694l-2.6-.487-.865,4.614-2.6-.487,2.217-11.807Zm-1.929,5.167a2,2,0,0,0,1.415-.146,1.678,1.678,0,0,0,.688-1.206,1.6,1.6,0,0,0-.212-1.332,2.023,2.023,0,0,0-1.266-.639l-2.844-.534-.625,3.323Z" transform="translate(-816.879 -388.624)"/><path class="a" d="M875.383,408.836l4.686,11.938-2.741.045-.952-2.66-4.491.072-.9,2.69-2.659.043,4.347-12.084Zm.271,7.366-1.586-4.383h-.033l-1.493,4.432Z" transform="translate(-821.257 -389.262)"/><path class="a" d="M887.4,407.27l6.6,6.818.033-.007-1.7-7.877,2.417-.522,2.537,11.741-2.582.558-6.583-6.806-.033.007,1.7,7.861-2.418.522-2.536-11.742Z" transform="translate(-825.449 -388.462)"/><path class="a" d="M900.483,405.906l-.878-2.04,9.042-3.889.877,2.04-3.307,1.422,3.87,9-2.427,1.044-3.87-8.994Z" transform="translate(-829.196 -387.014)"/><path class="a" d="M920.6,392.473l1.229,1.85-5.284,3.509,1.424,2.145,4.849-3.22,1.136,1.71-4.849,3.219,1.628,2.453,5.4-3.582,1.228,1.85-7.6,5.044-6.644-10.008Z" transform="translate(-832.626 -385.109)"/><path class="a" d="M931.376,382.6l1.545,1.595-4.556,4.413,1.791,1.849,4.182-4.05,1.428,1.474-4.182,4.05,2.048,2.115,4.652-4.506,1.545,1.6-6.551,6.345-8.357-8.63Z" transform="translate(-835.622 -382.604)"/></g><g transform="translate(739.832 277.43)"><path class="a" d="M820.669,317.811a2.909,2.909,0,0,0-1.127-1.573,3.417,3.417,0,0,0-1.784-.423,2.928,2.928,0,0,0-1.831.54,3.561,3.561,0,0,0-1.1,1.831,16.234,16.234,0,0,0-.563,3.452q-.166,2.16-.164,5.353v3.616q0,3.146.164,5.141a12.344,12.344,0,0,0,.587,3.147,2.913,2.913,0,0,0,1.127,1.573,3.416,3.416,0,0,0,1.784.423,2.924,2.924,0,0,0,1.831-.54,3.553,3.553,0,0,0,1.1-1.832,16.338,16.338,0,0,0,.564-3.451q.163-2.159.163-5.353V326.1q0-3.145-.163-5.142A12.42,12.42,0,0,0,820.669,317.811Z" transform="translate(-758.681 -301.044)"/><path class="a" d="M901.661,317.326l-3.24,15.073h6.574l-3.24-15.073Z" transform="translate(-780.085 -301.428)"/><path class="a" d="M786.553,317.67a3.233,3.233,0,0,0-1.127-1.362,3.332,3.332,0,0,0-1.9-.493,3.424,3.424,0,0,0-1.949.493,3.052,3.052,0,0,0-1.1,1.386,7.129,7.129,0,0,0-.493,2.089q-.118,1.2-.118,2.606a10.173,10.173,0,0,0,.846,4.837,3,3,0,0,0,2.817,1.455,3.044,3.044,0,0,0,2.865-1.455,10.186,10.186,0,0,0,.845-4.837,22.991,22.991,0,0,0-.14-2.63A6.945,6.945,0,0,0,786.553,317.67Z" transform="translate(-749.992 -301.044)"/><path class="a" d="M870.795,319.081a4.477,4.477,0,0,0-1.737-2.159,5.7,5.7,0,0,0-3.076-.728h-2.864v23.573h3a5.806,5.806,0,0,0,2.865-.61,4.182,4.182,0,0,0,1.714-2.019,11.813,11.813,0,0,0,.845-3.709q.213-2.3.211-5.729,0-2.864-.187-5.025A12.42,12.42,0,0,0,870.795,319.081Z" transform="translate(-771.124 -301.14)"/><path class="a" d="M932.656,321.534l8.838-25.514H739.832l8.853,26.472-8.844,25.916H941.516Zm-148.7,7.265a18.152,18.152,0,0,1-1.268,5.846,8.645,8.645,0,0,1-3.334,4.015,11.641,11.641,0,0,1-6.363,1.479,16.636,16.636,0,0,1-3.451-.352,7.258,7.258,0,0,1-2.935-1.315,6.9,6.9,0,0,1-2.042-2.583,9.715,9.715,0,0,1-.822-4.015h6.481a5.4,5.4,0,0,0,.681,2.935,2.6,2.6,0,0,0,2.371,1.057,3.382,3.382,0,0,0,2.16-.634,4.121,4.121,0,0,0,1.244-1.761,9.693,9.693,0,0,0,.588-2.677q.14-1.55.14-3.381v-1.6h-.094a6.023,6.023,0,0,1-2.418,2.043,8.6,8.6,0,0,1-3.827.775,8.329,8.329,0,0,1-3.756-.775,6.591,6.591,0,0,1-2.512-2.16,9.473,9.473,0,0,1-1.408-3.287,18.13,18.13,0,0,1-.446-4.156q0-5.776,2.559-8.828t8.194-3.052a10.375,10.375,0,0,1,5.541,1.291,8.677,8.677,0,0,1,3.17,3.429,14.319,14.319,0,0,1,1.432,4.954,50.6,50.6,0,0,1,.329,5.869Q784.164,325.489,783.953,328.8Zm25.146.4a17.992,17.992,0,0,1-1.268,5.658,8.515,8.515,0,0,1-3.122,3.874,10.28,10.28,0,0,1-5.8,1.409,13.741,13.741,0,0,1-5.024-.8,6.548,6.548,0,0,1-3.217-2.724,13.481,13.481,0,0,1-1.691-5,48.229,48.229,0,0,1-.493-7.489q0-3.474.235-6.668a17.982,17.982,0,0,1,1.269-5.658,8.96,8.96,0,0,1,3.122-3.945,9.9,9.9,0,0,1,5.8-1.479,12.723,12.723,0,0,1,5.048.869,6.98,6.98,0,0,1,3.193,2.794,13.5,13.5,0,0,1,1.691,5,48.24,48.24,0,0,1,.493,7.489Q809.333,326.006,809.1,329.2Zm37.589.869a14.664,14.664,0,0,1-1.855,5.376,8.138,8.138,0,0,1-3.521,3.146,13.189,13.189,0,0,1-5.588,1.033H825.064V306.095h11.082a12.086,12.086,0,0,1,5.681,1.151,8.194,8.194,0,0,1,3.358,3.287,14.612,14.612,0,0,1,1.62,5.142,48.453,48.453,0,0,1,.423,6.715A47.683,47.683,0,0,1,846.687,330.067Zm20.778,9.556-1.55-7.091h-8.922l-1.549,7.091H848.4l8.875-33.528h8.358l8.875,33.528Zm19.112-13.2v13.2h-6.762v-13.2l-8.687-20.333h7.607l4.414,12.96h.093l4.7-12.96h7.325Zm28.151,11.293q-3.076,2.419-8.57,2.418-5.73,0-8.194-2.489t-2.465-7.138v-1.362h6.762v.986a11.1,11.1,0,0,0,.188,2.136,3.719,3.719,0,0,0,.7,1.62,3.463,3.463,0,0,0,1.385,1.033,5.516,5.516,0,0,0,2.184.375,4.317,4.317,0,0,0,2.794-1.01,3.785,3.785,0,0,0,1.244-3.123,5.613,5.613,0,0,0-.3-1.948,3.867,3.867,0,0,0-1.01-1.48,7.2,7.2,0,0,0-1.855-1.2,26.625,26.625,0,0,0-2.841-1.1,24.332,24.332,0,0,1-3.9-1.644,10.469,10.469,0,0,1-2.747-2.089,7.476,7.476,0,0,1-1.62-2.771,11.652,11.652,0,0,1-.517-3.639q0-4.977,2.771-7.419a11.109,11.109,0,0,1,7.607-2.442,16.51,16.51,0,0,1,4.155.493,8.7,8.7,0,0,1,3.287,1.6,7.48,7.48,0,0,1,2.161,2.817,9.933,9.933,0,0,1,.774,4.109v.939h-6.48a6.721,6.721,0,0,0-.845-3.686,3.111,3.111,0,0,0-2.818-1.292,4.7,4.7,0,0,0-1.878.329,3.164,3.164,0,0,0-1.2.869,2.984,2.984,0,0,0-.611,1.245,6.378,6.378,0,0,0-.163,1.455,4.84,4.84,0,0,0,.657,2.606,5.9,5.9,0,0,0,2.818,1.949l5.212,2.254a15.964,15.964,0,0,1,3.147,1.761,8.588,8.588,0,0,1,1.948,1.972,6.566,6.566,0,0,1,1.01,2.324A13.05,13.05,0,0,1,917.8,330Q917.8,335.3,914.728,337.721Z" transform="translate(-739.832 -296.02)"/></g></g></svg>