<svg xmlns="http://www.w3.org/2000/svg" width="24.584" height="24.584" viewBox="0 0 24.584 24.584"><defs><style>.a{fill:#2d3190;}</style></defs><path class="a" d="M12.8,15.757l2.364-2.167a.724.724,0,0,1,.591-.2l.394.2,5.515,2.561c.394.2.394.394.394.788a4.993,4.993,0,0,1-1.576,3.545,5.642,5.642,0,0,1-4.136,1.576,12,12,0,0,1-5.515-1.379,25.821,25.821,0,0,1-5.515-3.939,33.55,33.55,0,0,1-2.955-4.333A27.226,27.226,0,0,1,.394,8.076,12.121,12.121,0,0,1,0,4.333,5.176,5.176,0,0,1,1.379,1.379,5.99,5.99,0,0,1,5.121,0a1.023,1.023,0,0,1,.788.394L8.864,5.909a.688.688,0,0,0,.2.394.724.724,0,0,1-.2.591L6.3,9.257a.879.879,0,0,0,0,.985,18.809,18.809,0,0,0,2.364,3.151,19.888,19.888,0,0,0,3.151,2.561C12.212,16.151,12.606,16.151,12.8,15.757Z" transform="translate(2.688) rotate(7)"/></svg>