<svg xmlns="http://www.w3.org/2000/svg" width="399" height="54.246" viewBox="0 0 399 54.246"><defs><style>.a{fill:#fff;}.a,.b{fill-rule:evenodd;}.b{fill:#2d3190;}</style></defs><path class="a" d="M111.558,23V34.556c0,4.474-3.35,5.989-6.787,5.989S98,39.03,98,34.556V23h2.751V33.862c0,3.094,1.459,4.466,3.988,4.466s3.988-1.372,3.988-4.41V23h2.831" transform="translate(-19.844 -4.657)"/><path class="a" d="M136.666,32.57c1.037,1.475,1.986,3.19,1.986,3.19h.128s-.152-1.794-.152-3.892V23h2.727V39.748h-2.7l-6.97-9.57a30.4,30.4,0,0,1-2.018-3.19h-.112s.167,1.794.167,3.988v8.773H127V23h2.783l6.882,9.57" transform="translate(-25.717 -4.657)"/><path class="a" d="M160,39.748h2.393V23H160Z" transform="translate(-32.399 -4.657)"/><path class="a" d="M180.008,39.748V25.273H175V23h12.76v2.273h-5.032V39.748h-2.719" transform="translate(-35.437 -4.657)"/><path class="a" d="M214.368,39.748H204V23h10.368v2.273h-7.744v4.945h6.867V32.5h-6.867v4.976h7.744v2.273" transform="translate(-41.309 -4.657)"/><path class="a" d="M234.96,37.554c3.373,0,5.782-1.762,5.782-6.252,0-4.689-2.5-6.109-5.519-6.109h-2.56V37.554ZM230,39.748V23h5.311c4.785,0,8.246,2.3,8.246,8.19,0,6.165-3.78,8.557-8.334,8.557Z" transform="translate(-46.574 -4.657)"/><path class="a" d="M286.037,36.425,285.886,24h2.672V40.748h-2.751l-8.318-12.68.175,12.68H275V24h2.831l8.206,12.425" transform="translate(-55.686 -4.86)"/><path class="a" d="M306.168,34.009h5.471l-1.316-3.756a37.178,37.178,0,0,1-1.348-4.4h-.12a44.785,44.785,0,0,1-1.332,4.378Zm6.252,2.161h-7l-1.6,4.578H301L307.244,24h3.517l6.189,16.748h-2.871Z" transform="translate(-60.951 -4.86)"/><path class="a" d="M332.008,40.748V26.273H327V24h12.76v2.273h-5.032V40.748h-2.719" transform="translate(-66.216 -4.86)"/><path class="a" d="M365.76,24V35.037c0,4.259-3.15,5.71-6.38,5.71S353,39.3,353,35.037V24h2.584V34.368c0,2.959,1.38,4.267,3.8,4.267s3.764-1.308,3.764-4.211V24h2.616" transform="translate(-71.481 -4.86)"/><path class="a" d="M384.544,31.76h2.991c2.05,0,3.015-.877,3.015-2.783,0-1.739-.965-2.783-2.983-2.783h-3.023Zm6.627,8.988a3.19,3.19,0,0,1-.726-1.6l-.662-2.9c-.479-1.954-1.443-2.329-3.054-2.329h-2.185v6.827H382V24h5.654c3.732,0,5.583,1.6,5.583,4.785a3.836,3.836,0,0,1-3.764,4.147v.088a2.991,2.991,0,0,1,2.831,2.672l.8,3.3a4.912,4.912,0,0,0,.861,1.755Z" transform="translate(-77.353 -4.86)"/><path class="a" d="M412.168,34.009h5.471l-1.316-3.756a37.19,37.19,0,0,1-1.348-4.4h-.12a44.769,44.769,0,0,1-1.332,4.378Zm6.252,2.161h-7l-1.6,4.578H407L413.244,24h3.517l6.189,16.748h-2.879Z" transform="translate(-82.415 -4.86)"/><path class="a" d="M438.544,24V38.467h9.419v2.281H436V24h2.544" transform="translate(-88.288 -4.86)"/><g transform="translate(56.926 0.04)"><g transform="translate(309.328 18.303)"><path class="a" d="M461.722,35.521a3.278,3.278,0,0,0,3.509,2.983c1.8,0,3.031-.8,3.031-2.393s-.742-2.185-3.485-3.19-4.929-2.01-4.929-5.136c0-3.493,2.743-4.785,5.367-4.785,3.086,0,5.431,1.2,5.71,4.41l-2.592.51a2.895,2.895,0,0,0-3.086-2.815c-1.6,0-2.712.853-2.712,2.393s1.34,2.241,3.684,3.1c2.568.941,4.705,1.962,4.705,5.088,0,3.294-2.624,4.745-5.846,4.745s-5.287-1.308-5.83-4.346l2.456-.654" transform="translate(-459.25 -23)"/></g><path class="a" d="M73.35,52.279H411.237V2.036H73.35Zm-1.97,1.962H413.207V.05H71.38Z" transform="translate(-71.38 -0.05)"/></g><path class="a" d="M51.875,61.938H49.921a17.984,17.984,0,1,0-35.967,0H12a19.938,19.938,0,1,1,39.875,0" transform="translate(-2.43 -8.505)"/><path class="a" d="M59.774,57.583,59,55.868,69.391,52l.774,1.715L59.774,57.583" transform="translate(-11.947 -10.53)"/><path class="a" d="M36,40.773h1.6V32H36Z" transform="translate(-7.29 -6.48)"/><g transform="translate(1.053 41.909)"><path class="a" d="M11.313,58.38,1.32,54.344l.75-1.794,9.993,4.043-.75,1.786" transform="translate(-1.32 -52.55)"/><path class="a" d="M61.02,67.508h8.844V65.57H61.02Z" transform="translate(-13.409 -55.186)"/><path class="a" d="M1.79,67.508h8.844V65.57H1.79Z" transform="translate(-1.415 -55.186)"/></g><path class="a" d="M31.938,20.938A19.938,19.938,0,0,1,12,1h1.954A17.984,17.984,0,0,0,49.921,1h1.954A19.938,19.938,0,0,1,31.938,20.938" transform="translate(-2.43 -0.202)"/><path class="a" d="M55.38,44.913,54,43.485,67.079,30.956,54,18.428,55.38,17,69.95,30.956,55.38,44.913" transform="translate(-10.935 -3.442)"/><path class="a" d="M14.57,44.913,0,30.956,14.57,17l1.38,1.428L2.871,30.956,15.95,43.485l-1.38,1.428" transform="translate(0 -3.442)"/><path class="a" d="M1.726,13.583,1,11.868,10.65,8l.718,1.715L1.726,13.583" transform="translate(-0.202 -1.62)"/><path class="a" d="M36,33.773h1.6V25H36Z" transform="translate(-7.29 -5.062)"/><path class="a" d="M47.723,41.14,46,40.063l5.543-8.493L46,23.077,47.723,22l6.252,9.57-6.252,9.57" transform="translate(-9.315 -4.455)"/><path class="a" d="M24.252,41.14,18,31.57,24.252,22l1.723,1.077L20.432,31.57l5.543,8.493L24.252,41.14" transform="translate(-3.645 -4.455)"/><path class="a" d="M69.391,13.583,59,9.715,59.774,8l10.391,3.868-.774,1.715" transform="translate(-11.947 -1.62)"/><path class="a" d="M2,1.6h8.773V0H2Z" transform="translate(-0.405)"/><g transform="translate(0 0.04)"><path class="a" d="M61.02,2.012h8.844V.05H61.02Z" transform="translate(-12.356 -0.05)"/><path class="a" d="M1.97,52.279H57V2.036H1.97ZM0,54.241H58.936V.05H0Z" transform="translate(0 -0.05)"/></g><g transform="translate(0.239 0.016)"><path class="b" d="M111.858,23V34.564c0,4.466-3.35,5.981-6.779,5.981S98.3,39.03,98.3,34.564V23h2.751V33.878c0,3.094,1.459,4.466,3.988,4.466s3.988-1.372,3.988-4.4V23H111.8" transform="translate(-20.144 -4.673)"/><path class="b" d="M136.966,32.57c1.037,1.483,1.994,3.19,1.994,3.19h.12s-.152-1.786-.152-3.892V23h2.727V39.748h-2.7l-6.978-9.57a32.343,32.343,0,0,1-2.018-3.19h-.112s.175,1.786.175,3.948v8.812H127.3V23h2.783l6.882,9.57" transform="translate(-26.017 -4.673)"/><path class="b" d="M160.3,39.768h2.393V23.02H160.3Z" transform="translate(-32.699 -4.677)"/><path class="b" d="M180.308,39.768V25.3H175.3V23.02h12.76V25.3h-5.024V39.768h-2.727" transform="translate(-35.737 -4.677)"/><path class="b" d="M214.668,39.768H204.3V23.02h10.368V25.3h-7.744v4.945h6.867v2.273h-6.867v4.976h7.744v2.273" transform="translate(-41.609 -4.677)"/><path class="b" d="M235.26,37.578c3.373,0,5.79-1.762,5.79-6.26,0-4.689-2.5-6.109-5.527-6.109h-2.552V37.578Zm-4.96,2.169V23h5.343c4.785,0,8.246,2.3,8.246,8.2,0,6.189-3.772,8.549-8.334,8.549Z" transform="translate(-46.874 -4.673)"/><path class="b" d="M286.337,36.445l-.144-12.425h2.664V40.768h-2.751l-8.31-12.68.167,12.68H275.3V24.02h2.839l8.2,12.425" transform="translate(-55.986 -4.88)"/><path class="b" d="M306.476,34.037h5.463l-1.308-3.756a35.217,35.217,0,0,1-1.332-4.41h-.12a44.793,44.793,0,0,1-1.332,4.378Zm6.252,2.161h-7.01l-1.6,4.57H301.3l6.244-16.748h3.525l6.181,16.748h-2.871Z" transform="translate(-61.251 -4.88)"/><path class="b" d="M332.308,40.768V26.3H327.3V24.02h12.76V26.3h-5.024V40.768h-2.727" transform="translate(-66.516 -4.88)"/><path class="b" d="M366.06,24V35.053c0,4.259-3.15,5.71-6.38,5.71s-6.38-1.451-6.38-5.71V24h2.592V34.368c0,2.959,1.372,4.267,3.788,4.267s3.748-1.292,3.748-4.195V24h2.608" transform="translate(-71.781 -4.876)"/><path class="b" d="M384.844,31.784h3c2.042,0,3.015-.885,3.015-2.791,0-1.739-.973-2.783-2.991-2.783h-3.023Zm6.627,8.964a3.19,3.19,0,0,1-.726-1.6l-.662-2.9c-.471-1.954-1.435-2.329-3.046-2.329h-2.193v6.827H382.3V24h5.654c3.732,0,5.583,1.6,5.583,4.785a3.836,3.836,0,0,1-3.764,4.147v.088A2.985,2.985,0,0,1,392.6,35.7l.8,3.3a4.786,4.786,0,0,0,.869,1.747Z" transform="translate(-77.653 -4.876)"/><path class="b" d="M412.476,34.037h5.463l-1.308-3.756a35.229,35.229,0,0,1-1.332-4.41h-.12a44.785,44.785,0,0,1-1.332,4.378Zm6.252,2.161h-7.01l-1.6,4.57H407.3l6.244-16.748h3.525l6.181,16.748h-2.871Z" transform="translate(-82.715 -4.88)"/><path class="b" d="M438.844,24.02V38.495h9.419v2.273H436.3V24.02h2.544" transform="translate(-88.588 -4.88)"/><g transform="translate(56.926 0.04)"><g transform="translate(309.352 18.351)"><path class="b" d="M462.028,35.553a3.278,3.278,0,0,0,3.509,2.983c1.81,0,3.031-.8,3.031-2.393s-.742-2.185-3.477-3.19-4.913-1.994-4.913-5.088c0-3.493,2.743-4.785,5.359-4.785,3.086,0,5.431,1.2,5.718,4.41l-2.6.51a2.887,2.887,0,0,0-3.086-2.815c-1.595,0-2.7.853-2.7,2.393s1.332,2.241,3.676,3.1c2.576.941,4.713,1.962,4.713,5.088,0,3.3-2.632,4.785-5.854,4.785s-5.287-1.3-5.822-4.346l2.448-.654" transform="translate(-459.58 -23.08)"/></g><g transform="translate(0 0)"><path class="b" d="M73.658,52.3H411.545V2.056H73.658ZM71.68,54.245H413.515V.07H71.68Z" transform="translate(-71.68 -0.07)"/></g></g><path class="b" d="M52.175,61.938H50.229a17.99,17.99,0,1,0-35.979,0H12.3a19.938,19.938,0,1,1,39.875,0" transform="translate(-2.73 -8.521)"/><path class="b" d="M60.082,57.6,59.3,55.888,69.691,52.02l.774,1.723L60.082,57.6" transform="translate(-12.247 -10.55)"/><path class="b" d="M36.3,40.793h1.6V32.02H36.3Z" transform="translate(-7.59 -6.5)"/><g transform="translate(1.061 41.917)"><path class="b" d="M11.615,58.41,1.63,54.366l.742-1.786,9.993,4.035-.75,1.794" transform="translate(-1.63 -52.58)"/><path class="b" d="M61.33,67.528h8.844V65.59H61.33Z" transform="translate(-13.719 -55.214)"/><path class="b" d="M2.1,67.528h8.844V65.59H2.1Z" transform="translate(-1.725 -55.214)"/></g><path class="b" d="M32.248,20.938A19.938,19.938,0,0,1,12.31,1h1.954A17.992,17.992,0,0,0,50.231,1h1.946A19.938,19.938,0,0,1,32.24,20.938" transform="translate(-2.732 -0.218)"/><path class="b" d="M55.68,44.933l-1.38-1.42L67.387,30.976,54.3,18.448l1.38-1.428L70.25,30.976,55.68,44.933" transform="translate(-11.235 -3.462)"/><path class="b" d="M14.87,44.933.3,30.976,14.87,17.02l1.38,1.428L3.171,30.976,16.25,43.513l-1.38,1.42" transform="translate(-0.3 -3.462)"/><path class="b" d="M2.026,13.6,1.3,11.888,10.95,8.02l.718,1.715L2.026,13.6" transform="translate(-0.502 -1.64)"/><path class="b" d="M36.3,33.793h1.6V25.02H36.3Z" transform="translate(-7.59 -5.082)"/><path class="b" d="M48.031,41.16,46.3,40.083l5.551-8.493L46.3,23.1l1.731-1.077,6.244,9.57-6.244,9.57" transform="translate(-9.615 -4.475)"/><path class="b" d="M24.552,41.16,18.3,31.59l6.252-9.57L26.275,23.1,20.732,31.59l5.543,8.493L24.552,41.16" transform="translate(-3.945 -4.475)"/><path class="b" d="M69.691,13.6,59.3,9.735l.782-1.715,10.384,3.868L69.691,13.6" transform="translate(-12.247 -1.64)"/><path class="b" d="M2.3,1.615h8.773V.02H2.3Z" transform="translate(-0.705 -0.02)"/><g transform="translate(0 0.04)"><path class="b" d="M61.33,2.04h8.844V.07H61.33Z" transform="translate(-12.658 -0.07)"/><path class="b" d="M2.27,52.3H57.3V2.056H2.27ZM.3,54.245H59.244V.07H.3Z" transform="translate(-0.3 -0.07)"/></g></g></svg>